# xmcd
#
# Track frame offsets:
# 150
# 16137
# 38877
# 61890
# 81140
# 97880
# 112492
# 140095
# 158952
# 175870
# 191187
#
# Disc length: 2792 seconds
#
#
# Revision: 2
# Processed by: cddbd v1.5.1PL0 Copyright (c) Steve Scherf et al.
# Submitted via: FreeRIP 2.941 
#
DISCID=950ae60b
DTITLE=Gary B. B. Coleman - Cocaine Annie
DYEAR=1996
DGENRE=Blues
TTITLE0=A Little Bit of Your Gravy - Run All Over My Plate
TTITLE1=That's Enough
TTITLE2=Sleeper
TTITLE3=Something About You
TTITLE4=I'm Gonna Find Her
TTITLE5=Cocaine Annie
TTITLE6=Personal Manager
TTITLE7=Baby, Please Come Home
TTITLE8=I No Something's on Your Mind
TTITLE9=My Old Cow's Sick ~ So Leave Your Bull at Home
TTITLE10=Answer To (Laundrymat Blues)
EXTD=YEAR: 1996
EXTT0=
EXTT1=
EXTT2=
EXTT3=
EXTT4=
EXTT5=
EXTT6=
EXTT7=
EXTT8=
EXTT9=
EXTT10=
PLAYORDER=
